<?xml version="1.0" encoding="UTF-8" standalone="no"?>
<!DOCTYPE svg PUBLIC "-//W3C//DTD SVG 20010904//EN"
              "http://www.w3.org/TR/2001/REC-SVG-20010904/DTD/svg10.dtd">

<svg xmlns="http://www.w3.org/2000/svg"
     width="2.04444in" height="2.04444in"
     viewBox="0 0 184 184">
  <path id="Importált útvonal"
        fill="hsl(255, 98%, 80%)" stroke="hsl(216, 100%, 15%)" stroke-width="5"
        d="M 72.97,103.44
           C 72.97,103.44 83.71,146.95 83.71,146.95
             83.71,146.95 40.66,134.59 40.66,134.59
             40.66,134.59 72.97,103.44 72.97,103.44 Z
           M 137.59,41.25
           C 137.59,41.25 148.33,84.76 148.33,84.76
             148.33,84.76 105.28,72.40 105.28,72.40
             105.28,72.40 137.59,41.25 137.59,41.25 Z
           M 51.50,16.45
           C 51.50,16.45 62.23,59.96 62.23,59.96
             62.23,59.96 19.18,47.60 19.18,47.60
             19.18,47.60 51.50,16.45 51.50,16.45 Z
           M 72.97,103.41
           C 72.97,103.41 62.23,59.90 62.23,59.90
             62.23,59.90 105.29,72.26 105.29,72.26
             105.29,72.26 72.97,103.41 72.97,103.41 Z
           M 94.47,28.92
           C 94.47,28.92 116.08,116.51 116.08,116.51
             116.08,116.51 29.43,91.53 29.43,91.53
             29.43,91.53 94.47,28.92 94.47,28.92 Z
           M 51.06,179.07
           C 51.06,179.07 7.80,3.95 7.80,3.95
             7.80,3.95 181.21,53.88 181.21,53.88
             181.21,53.88 51.06,179.07 51.06,179.07 Z" />
</svg>
